# xmcd
#
# Track frame offsets:
#	150
#	18899
#	33841
#	46460
#	61130
#	78754
#	92781
#	106578
#	118955
#	136403
#	154353
#	170291
#	189528
#	203515
#
# Disc length: 2922 seconds
#
# Revision: 0
# Processed by: cddbd v1.5.1PL0 Copyright (c) Steve Scherf et al.
# Submitted via: dBpowerAMP V4.0
#
DISCID=aa0b680e
DTITLE=Sérgio Reis - Popularidade
DYEAR=2003
DGENRE=Country
TTITLE0=Ventos Uivantes
TTITLE1=Vanerão do Coroa
TTITLE2=Pinha do Pinheiro
TTITLE3=Estrada da Saudade
TTITLE4=Cabocla Tereza
TTITLE5=Coice de Alazão
TTITLE6=Prato do Dia
TTITLE7=Cavalo Enxuto
TTITLE8=Segura Peão
TTITLE9=Bicho do Mato
TTITLE10=Hoje eu não Posso ir
TTITLE11=Viola Calada
TTITLE12=Gaúcho Largado
TTITLE13=Vaca Estrela e Boi Fubá
EXTD=
EXTT0=
EXTT1=
EXTT2=
EXTT3=
EXTT4=
EXTT5=
EXTT6=
EXTT7=
EXTT8=
EXTT9=
EXTT10=
EXTT11=
EXTT12=
EXTT13=
PLAYORDER=
